<svg width="30" height="30" viewBox="0 0 30 30" fill="none" xmlns="http://www.w3.org/2000/svg">
<path fill-rule="evenodd" clip-rule="evenodd" d="M13.3106 2.07232C13.8244 1.77613 14.407 1.62021 15 1.62021C15.593 1.62021 16.1756 1.77611 16.6893 2.07227C16.6899 2.07263 16.6906 2.07299 16.6912 2.07336L25.4412 7.07335C25.9549 7.36993 26.3815 7.79636 26.6784 8.30988C26.9752 8.8234 27.1318 9.40595 27.1324 9.99909L27.1324 10V20L27.1324 20.0009C27.1318 20.594 26.9752 21.1766 26.6784 21.6901C26.3815 22.2036 25.9549 22.6301 25.4412 22.9266L25.4378 22.9286L16.6912 27.9266C16.6907 27.927 16.6901 27.9273 16.6896 27.9276C16.1758 28.2238 15.5931 28.3798 15 28.3798C14.4069 28.3798 13.8242 28.2238 13.3104 27.9275C13.3099 27.9272 13.3094 27.9269 13.3089 27.9266L4.56226 22.9286L4.55885 22.9266C4.04518 22.6301 3.61852 22.2036 3.32169 21.6901C3.02486 21.1766 2.86828 20.594 2.86768 20.0009V9.99909C2.86828 9.40595 3.02486 8.8234 3.32169 8.30988C3.61852 7.79636 4.04518 7.36993 4.55885 7.07336L4.56225 7.07139L13.3089 2.07336C13.3094 2.07301 13.31 2.07267 13.3106 2.07232ZM15 3.38491C14.7161 3.38491 14.4371 3.45966 14.1912 3.60164L14.1878 3.6036L5.4412 8.60164C5.44071 8.60193 5.44021 8.60221 5.43971 8.6025C5.19471 8.7443 4.99119 8.94792 4.84952 9.19302C4.70762 9.4385 4.63274 9.71696 4.63238 10.0005V19.9995C4.63274 20.283 4.70762 20.5615 4.84952 20.807C4.99117 21.052 5.19464 21.2556 5.4396 21.3974C5.44013 21.3977 5.44067 21.398 5.4412 21.3984L14.1912 26.3984C14.4371 26.5403 14.7161 26.6151 15 26.6151C15.284 26.6151 15.5629 26.5403 15.8089 26.3984L15.8123 26.3964L24.5589 21.3984C24.5594 21.398 24.5599 21.3977 24.5605 21.3974C24.8054 21.2556 25.0089 21.052 25.1505 20.807C25.2925 20.5614 25.3674 20.2828 25.3677 19.9991V10.0009C25.3674 9.71723 25.2925 9.43862 25.1505 9.19302C25.0089 8.94792 24.8054 8.74431 24.5604 8.60251C24.5599 8.60222 24.5594 8.60193 24.5589 8.60164L15.8088 3.60165C15.5629 3.45967 15.284 3.38491 15 3.38491Z" fill="#6D77FA"/>
<path fill-rule="evenodd" clip-rule="evenodd" d="M8.61099 4.82108C8.85478 4.39914 9.39447 4.25472 9.81641 4.49851L15 7.49346L20.1836 4.49851C20.6055 4.25472 21.1452 4.39914 21.389 4.82108C21.6328 5.24303 21.4884 5.78271 21.0664 6.0265L15.4414 9.2765C15.1683 9.43431 14.8317 9.43431 14.5586 9.2765L8.93357 6.0265C8.51163 5.78271 8.3672 5.24303 8.61099 4.82108Z" fill="#6D77FA"/>
<path fill-rule="evenodd" clip-rule="evenodd" d="M2.98599 14.5586C3.22978 14.1366 3.76947 13.9922 4.19141 14.236L9.81641 17.486C10.0893 17.6436 10.2573 17.9349 10.2573 18.25V24.7375C10.2573 25.2248 9.8623 25.6198 9.37499 25.6198C8.88768 25.6198 8.49264 25.2248 8.49264 24.7375V18.7592L3.30857 15.764C2.88663 15.5202 2.7422 14.9805 2.98599 14.5586Z" fill="#6D77FA"/>
<path fill-rule="evenodd" clip-rule="evenodd" d="M27.014 14.5586C27.2578 14.9805 27.1134 15.5202 26.6915 15.764L21.5074 18.7592V24.7375C21.5074 25.2248 21.1123 25.6198 20.625 25.6198C20.1377 25.6198 19.7427 25.2248 19.7427 24.7375V18.25C19.7427 17.9349 19.9107 17.6436 20.1836 17.486L25.8086 14.236C26.2306 13.9922 26.7702 14.1366 27.014 14.5586Z" fill="#6D77FA"/>
<path fill-rule="evenodd" clip-rule="evenodd" d="M3.32375 8.25819C3.56775 7.83637 4.10751 7.69223 4.52933 7.93623L15 13.9932L25.4707 7.93623C25.8925 7.69223 26.4323 7.83637 26.6763 8.25819C26.9203 8.68001 26.7761 9.21977 26.3543 9.46378L15.4418 15.7763C15.1685 15.9344 14.8315 15.9344 14.5582 15.7763L3.6457 9.46378C3.22388 9.21977 3.07974 8.68001 3.32375 8.25819Z" fill="#6D77FA"/>
<path fill-rule="evenodd" clip-rule="evenodd" d="M15 14.1176C15.4873 14.1176 15.8824 14.5127 15.8824 15V27.6C15.8824 28.0873 15.4873 28.4824 15 28.4824C14.5127 28.4824 14.1177 28.0873 14.1177 27.6V15C14.1177 14.5127 14.5127 14.1176 15 14.1176Z" fill="#6D77FA"/>
</svg>
